<svg id="Слой_1" data-name="Слой 1" xmlns="http://www.w3.org/2000/svg" viewBox="0 0 734.49 896.94"><defs><style>.cls-1{fill:#d08c00;}</style></defs><title>Монтажная область 1</title><path class="cls-1" d="M250.34,265.62l-1,.58L48.82,748.37a5.88,5.88,0,0,0,2.25.14c1.71,4.06,3.65,5.88,5.48,6.54L262.93,258.83C256.81,258.25,248.93,262.58,250.34,265.62Z"/><path class="cls-1" d="M236.06,268.51c1.76-3.67.06-4-1.65-3.73L34.67,745.05a5.74,5.74,0,0,0,3-1c4.39-3.3,5.62-1,7.37,1.4l198-476C236.13,272.1,236.06,268.51,236.06,268.51Z"/><path class="cls-1" d="M30.83,742.16,229.48,264.55a6.16,6.16,0,0,1-2.15-4.36c-.37-3.23-3.71-2.67-5.69-2.05L23,735.7v0c5.72-1.59,7.09,4.78,7.09,4.78A12.55,12.55,0,0,0,30.83,742.16Z"/><path class="cls-1" d="M270,272.06c-3.63-3.16-.87-8.76-.87-8.76a6.21,6.21,0,0,0-1.9-2.8L61.94,754.16A8.24,8.24,0,0,0,63.4,753c3.44-4.52,7.63-3.68,10.17-1.53L273.29,271.3A6.94,6.94,0,0,1,270,272.06Z"/><path class="cls-1" d="M162.67,269.33c-5.15,3.53-7.57,2.64-8.58,1.79L77.35,455.62A11.69,11.69,0,0,0,82,454.51a10,10,0,0,1,4.94-2.2,10.13,10.13,0,0,0-5,2.21,11.59,11.59,0,0,1-4.67,1.1L13.61,608.87c2.51,5,4.47,4.21,4.47,4.21A44.88,44.88,0,0,1,20.75,617L166,267.75A30.74,30.74,0,0,0,162.67,269.33Z"/><path class="cls-1" d="M298.51,237.23C292.44,243.83,295,247,295,247c-2.55,6.45-6.7,8.08-10,8.24L75.49,759c1.59,6.23,4.15,6.93,4.15,6.93,5.3-2.47,1.65-9,8.41-11.86L301.51,240.77C300.77,239.14,300,237.62,298.51,237.23Z"/><path class="cls-1" d="M60.83,479.5c-15.25,6.57-9.76,13.71-9.76,13.71-20.9,29.12-32.89,76.2-32.89,76.2-12.49,29.47-9.26,33.75-7.44,34.28L62.62,479C61.57,479.32,60.83,479.5,60.83,479.5Z"/><path class="cls-1" d="M37.82,650.67l-9,1.58c-.65-.36-1.21-.62-1.79-.9L13.48,683.89a27.66,27.66,0,0,0,1.45,4.46A38.34,38.34,0,0,1,7.06,713a28.86,28.86,0,0,0,1.2,8.71Z"/><path class="cls-1" d="M209.32,264.27a14.8,14.8,0,0,1-6,.59L10.51,728.38c1,2.53,1.9,4.22,1.9,4.22,3.23-3,5.66-2.56,7.4-1.29L215.36,261.16Z"/><path class="cls-1" d="M126,275.1a47.38,47.38,0,0,1-5.81,2.74L58.84,425.41c1.81.54,3.16,1.18,3.82,2.6A23.72,23.72,0,0,0,56.94,430l-3.5,8.43a10.74,10.74,0,0,0,2.59.78,37.31,37.31,0,0,1,5.64,4.7l70.78-170.16C129.42,273.38,128,272.22,126,275.1Z"/><path class="cls-1" d="M437,205a9.29,9.29,0,0,0-6.11-1.62L212.16,729.2a14.82,14.82,0,0,1,1.41,2.78c2.36-1.43,5.23-1.21,8.05-.23l218.7-525.84A23.85,23.85,0,0,0,437,205Z"/><path class="cls-1" d="M511,92.34A3.3,3.3,0,0,0,508.67,91L463,200.9c1.31,1.59,2.19,3.78,2.08,7.68-5.49.95-2.58,6.06-2.58,6.06a26.63,26.63,0,0,1-5.49.63L240.81,735.05c8.1-6.76,8.43-13.23,8.43-13.23-.13-12.94,10.14-17.76,15.67-19.42L518.73,92.12C510.53,98.08,511,92.34,511,92.34Z"/><path class="cls-1" d="M315.78,652c.66-.71,1.32-1.37,2-2L579.67,20.3c-7.66,3.89-7,6.68-7,6.68C564.79,41.71,564.48,42.26,559,44.7L291.06,689l7.23-4c2.5-1.47,4.6-2.56,6.38-3.46l11.47-27.55C316,652.7,315.78,652,315.78,652Z"/><path class="cls-1" d="M589.78,16.31c-1.46.47-2.76.92-4,1.38L325.33,643.91a50.85,50.85,0,0,1,5.62-3.28c2.77-5.61,3.37-3.19,3.37-3.19-.26-14.41,3.71-8.19,3.71-8.19,4.14.77,3.22-5.82,3.22-5.82-2.54-5.45,2.69-6.32,5.78-6.39L596.4,17.43C595.19,15.29,593.5,13.52,589.78,16.31Z"/><path class="cls-1" d="M422.32,205.89a16.78,16.78,0,0,0-10.05,8.46,11.84,11.84,0,0,1-2.94,3.47L199.09,723.29a14.53,14.53,0,0,1,2.29-.16l.43-.2a11.47,11.47,0,0,1,6.9,2.5L425.38,204.49A20.13,20.13,0,0,0,422.32,205.89Z"/><path class="cls-1" d="M111.65,281.27c.06.16.13.28.2.44a95.52,95.52,0,0,1-10.18,3.37L45.72,419.6a24.85,24.85,0,0,0,8.63,4.54l59.86-143.93C113.32,280.55,112.45,280.9,111.65,281.27Z"/><path class="cls-1" d="M328.91,243.52c-1.82-4.76-4.86-4.48-6.3-4L111.93,746.07a14.9,14.9,0,0,0,11.09-1.4l207.2-498.18A7,7,0,0,1,328.91,243.52Z"/><path class="cls-1" d="M348.56,227.89c-14.15,6.6-6.73,22.53-6.73,22.53a16.92,16.92,0,0,1-7.78-1L129.58,741a27.76,27.76,0,0,1,9,.1,5.22,5.22,0,0,1,1.72-.73L357.49,218.29C351.09,215,348.56,227.89,348.56,227.89Z"/><path class="cls-1" d="M361.64,220.4l-216.28,520c3.31.52,7,1.27,10.79-.65L369,228A20.25,20.25,0,0,0,361.64,220.4Z"/><path class="cls-1" d="M313.57,245.29c-4.3,5.78-6.78.47-6.78.47a3.81,3.81,0,0,1-2.11-.5L98.44,741.11a15.08,15.08,0,0,1,6.51,1.67,20.85,20.85,0,0,0,2.67,1.55L317.17,240.49A5,5,0,0,0,313.57,245.29Z"/><path class="cls-1" d="M402.56,217.8c-10.53-6.41-8.88,5.22-8.88,5.22a6.49,6.49,0,0,0-3,2.34L178.92,734.42a20.26,20.26,0,0,0,3.87-2.62,52.36,52.36,0,0,1,10.52-6.72L403.94,218.66A6,6,0,0,1,402.56,217.8Z"/><path class="cls-1" d="M451.22,123.45c2.92,5.12-.74,11.14-.74,11.14-3.57,2.73,0,7-4.49,12.32a19.89,19.89,0,0,0-.3,8.75l17.38-41.78C445.61,117.92,451.22,123.45,451.22,123.45Z"/><path class="cls-1" d="M453.6,188.61a14.79,14.79,0,0,0,5.69,9l44-105.8a54.87,54.87,0,0,0-10.08,5c-1,.13-1.83.28-2.7.43l-37.84,91A4.2,4.2,0,0,0,453.6,188.61Z"/><path class="cls-1" d="M273.84,260.58a17.8,17.8,0,0,1,1.69,5.31l4.75-11.42-.15-.05C270.87,249.58,273.84,260.58,273.84,260.58Z"/><path class="cls-1" d="M233.92,739.54c1.64-8.86-.39-13.47-2.25-15.69,1.86,2.22,3.88,6.82,2.25,15.66L452.15,214.85a13.14,13.14,0,0,1-6-2.85,4.83,4.83,0,0,0-1.79-3.75L225.82,733.72a45.94,45.94,0,0,1,8,6Z"/><path class="cls-1" d="M446.9,169.65c-.7,7.83.58,12.43,2.2,15.15L485,98.49c-13.92,3.79-13.52,10.69-13.52,10.69,1.82,6-1.16,6.33-3.8,5.67l-20.34,48.92A9.48,9.48,0,0,1,446.9,169.65Z"/><path class="cls-1" d="M380.23,238.33c-3.26-.27-6.17-3-8.17-5.64L162.27,737.1c3.07-.38,6.78,0,10.81-.73Z"/><path class="cls-1" d="M536.67,49c-16.8,3.13-7.47,9.57-7.47,9.57a17.86,17.86,0,0,1,1.31,5.23Z"/><path class="cls-1" d="M731.09,90.11c-6.48-4.56-12.62,1-12.62,1-6.77-2.79-9,4.19-9,4.19-12.67,10.23-7.49-.86-7.49-.86,1.26-12.5-5.93-8.06-5.93-8.06-3.39,2.11-6.3-11.15-6.3-11.15-3.53-7.57-12.49-10.43-12.49-10.43-11-2.47,2.36-12.5,2.36-12.5,11.17-5.21,7-11.91,7-11.91-2.25-6-16.15-6.57-16.15-6.57-14.31-1.43-19.59-9.27-19.59-9.27-8.45-5.27,1.94-13.37-12-13.94-6,2.27-15.25-7-15.25-7-10.57-8.61-12.17.8-12.17.8a8.56,8.56,0,0,0-2.72,2.17L604.84,16c-.07.45-.11.78-.11.78a1.57,1.57,0,0,1-.3.2L352.69,616.9c2.25-2.87,4.95-7.91,10.37-6.2,9.87,2.44,9.72-7.24,9.72-7.24,6-9.32,10.91-3.47,10.91-3.47a22.16,22.16,0,0,0,1.05-6.15,22,22,0,0,1-1.05,6.14c14.72-4.69,7.83-11.24,13.75-9.11,7.74-7.94,12.89-2.76,12.89-2.76,4.24-1.43,9.47,8.6,18.87,4.21,5.4-3.6,8.21,5.91,8.21,5.91,3.76-7.15,9.8-2.39,9.8-2.39.74-3.07,5.85-3.8,5.85-3.8,4.77-4.95,6.31,3,6.31,3,1.22,3.77-1.33,7.67-1.33,7.67a9.8,9.8,0,0,1,7-4.89c2.41.51,2.05,5.54,2.05,5.54,7.66,2.4,2.75-3.45,2.75-3.45,1.16-9.2,14.64-9.53,14.64-9.53,10.54-5.46,13.6,10.45,20.26,9.52.08-.07.13-.15.2-.22,15.76,8.74,11.79-2.13,11.79-2.13,5.53-8,11.25.73,11.25.73,13.46,7.82,3.27,8.21,7.14,11.84,8.11,2.17,4.23,6.7,4.23,6.7-2.51,2.79.87,7.72.87,7.72a10.83,10.83,0,0,1,1,12.57c2.77,10.63,8.47,12.31,8.47,12.31,10.32-5.92,17.75,4.18,17.75,4.18,5.22,10,12.35.75,9.83-3.49,8.6-7.28,9.94,7.29,9.94,7.29-2.1,3.68,6.91,12.47,1.77,14.32-3.89,4.53,8.56,2,8.56,2l4,12.21c4.28,4.51,7.07,0,15.12,4.32,18-4.59,19.89,6.44,19.89,6.44,4.15,1.86,5.4,11.57,5.4,11.57,6.57,9.41,1,11.47,1,11.47-.32,3.95,9.46,1.55,12.42,5.58,3.63-2.77,10.77,2,10.77,2-.8,4.15-15.05,8.65-15.05,8.65-1.68,11.63-6,2.27-6,2.27-10.08-9.94-12.2,1.89-12.2,1.89,2.91,6.24-4.71,9.79-8,2.67-6.72,3.13-10.15-7.74-11.94.15-2.84,6.74-5.19,4-5.19,4-5.42-3.43-2.79,4.56-2.79,4.56,2.77,3.59-5,11.54-5.76.52-6.6-15.34-10.83-6.87-10.83-6.87-1.27,5.46-7.09,8.18-7.09,8.18-6.24,8.86-1.08,14-1.08,14,7.8,5,4.57,9.8,4.57,9.8,2.69,5.78,6.5,4.58,6.5,4.58,10.12.68,4.35,9.32,4.35,9.32-4,6.74,2.35,9.75,2.35,9.75,4.26,5.6-3.15,9.61-3.15,9.61-13,7.15-5,12.62-5,12.62,5.69,8.73-1.65,10.52-1.65,10.52,1.84,5.1-3.85,10.46-3.85,10.46-9.93,14.93-.6,12.75-.6,12.75,10,14.33,1.09,15.21,1.09,15.21-5.75.51-8.05,3.75-8.05,3.75-8.35-1.52-8.89,9-8.89,9,2.11,3.35,5.49,1.24,5.49,1.24,4.56,9.79,12.08,9.54,12.08,9.54,6.28,4.1,10.69-2.82,20.51.72,17.45,0,13.72-8,13.72-8-3.47-2.73,1.33-7.67,1.33-7.67l9.21,2.23c-.54-11.69,10.9-17.55,10.9-17.55,2.78-11.6,19.9-15.8,19.9-15.8,12.73-4.3,16.07,1.72,16.07,1.72,8.11,2.17,10,14.33,10,14.33s6.71-3.13,1.41-18c0,0-4.24-12.65-11-8.42,0,0-4.37,5.82-7.53-6.78,0,0-7.18-3.71-7.05-15.13,0,0-6.18-7.42-2.51-12.38l4.5,4.94,4.39,8.25s7.58,4.58,11.37-3.67c0-5.94-6.73-3.91-6.39-7.86,0,0,6.66-1,7.44-5.1,0,0-4.42-7.15,3.88-11.56l6-8.22,3.12,6.68,9-26.39s6-8.21-6-15.11c0,0-4.87-6.94-13.49-6.7l-10.56-1.58s-9.08.42-4.2-7.81c3.75-7.18,11.65-5.44,14.83-1l9.18,3.31s4.18,7.8,13.18,9.57c0,0,3.62-2.78,2.85-13.79,0,0,3.52-7.61-.51-12.77a18.23,18.23,0,0,0,2.74-17.54s-9.85-10.58-3.41-12c0,0,11-5.67,12.44-9.58,0,0,6.73-3.69,9-9.44,1.11.18.3,1.14,4.87,0l0-577.76A20.49,20.49,0,0,1,731.09,90.11Z"/><path class="cls-1" d="M315.84,666.72l-4.57,11C313.64,675.75,314.74,673.06,315.84,666.72Z"/><path class="cls-1" d="M552.69,47.81c-3.35,1.06-8,1.08-10.89.93L531.5,73.48a25.19,25.19,0,0,0,1,2.41c-2.51,5.73-4.78,9.17-6.64,11.28l-255,613,13.68-7.6Z"/><path class="cls-1" d="M72.54,455.07,150,268.82c-4.26-.39-9.28,3.19-9.28,3.19a20.64,20.64,0,0,1-3,1.15L65.11,447.7A49.25,49.25,0,0,1,69.38,454,18,18,0,0,0,72.54,455.07Z"/><path class="cls-1" d="M6.3,352.85c-1.38.69-2.34,1.26-2.34,1.26-5.51,1.73-4,8.66-3,11.63Z"/><path class="cls-1" d="M21.19,354.4c-1.56-.27-1.86-3.14-1.86-3.14-1.85-1.37-4.48-1.3-7-.68L4.13,370.16l7.17,8Z"/><path class="cls-1" d="M63.42,302.31,23.27,398.88a5.89,5.89,0,0,0,2.64-.06c3.31-1,4.95,1.09,6.35,3.69L76.57,296A85.05,85.05,0,0,1,63.42,302.31Z"/><path class="cls-1" d="M56.86,304.67a53,53,0,0,0-11.56,3.84l-8,19.37c.09.57.16.93.16.93a40.65,40.65,0,0,1-5.76,12.53L11.86,388.93a3.56,3.56,0,0,0,2.69,1.72c2-.3,3.05,2.84,4.87,5.36L57.5,304.46Z"/><path class="cls-1" d="M22.65,649.76c-3.2-.63-4.56.66-5.19,2.4a14.3,14.3,0,0,0,.51,4.6c-4.67,6.15-4.58,11.82-4.21,14.39Z"/><path class="cls-1" d="M84.24,289.62l-49,117.9a5.65,5.65,0,0,0,2,1.65,42.29,42.29,0,0,0,5,6.94L96.83,284.63C94.53,283.53,93,282.3,84.24,289.62Z"/><path class="cls-1" d="M187.64,265.14,31.51,640.55H32a11.78,11.78,0,0,1,7.91,5.19L198.51,264.3A26.45,26.45,0,0,0,187.64,265.14Z"/><path class="cls-1" d="M72.54,455.07A18.85,18.85,0,0,1,69.38,454a35.34,35.34,0,0,1,2,3.85Z"/><path class="cls-1" d="M27.09,639.1,181.64,267.5c-6.15,3.89-6.72.42-6.72.42a4,4,0,0,0-3.36-1.45L23.46,622.55c1.78,4.93.92,7.52.92,7.52C23.86,635.12,25.31,637.74,27.09,639.1Z"/><path class="cls-1" d="M67.29,467.71l1.89-4.55A4.91,4.91,0,0,0,67.29,467.71Z"/></svg>