<svg width="12" height="13.7167" xmlns="http://www.w3.org/2000/svg" viewBox="0 0 11.83 13.52"><defs><style>.a{fill:#d08c00;</style></defs><path class="a" d="M10.7,13.43a.65.65,0,0,1-.38.09A11.34,11.34,0,0,1,4.7,11.35,11.52,11.52,0,0,1,1,6.79,11.24,11.24,0,0,1,.07.85.62.62,0,0,1,.23.49.51.51,0,0,1,.6.33L3.23,0A.53.53,0,0,1,3.62.1a.51.51,0,0,1,.24.32l.9,2.89a.7.7,0,0,1,0,.38.48.48,0,0,1-.24.3L2.9,5A8.84,8.84,0,0,0,4.43,7.81,9,9,0,0,0,6.81,9.87L8.2,8.52a.59.59,0,0,1,.33-.17.63.63,0,0,1,.38.07L11.55,9.9a.52.52,0,0,1,.24.3.55.55,0,0,1,0,.4l-.87,2.5A.46.46,0,0,1,10.7,13.43Z"/></svg>