<svg id="Слой_1" data-name="Слой 1" xmlns="http://www.w3.org/2000/svg" viewBox="0 0 1103.72 992.88"><defs><style>.cls-1{opacity:0.08;}.cls-2{fill:#d08c00;}</style></defs><title>Монтажная область 1</title><g class="cls-1"><path class="cls-2" d="M566.67,2.45c9.77-2.1,29.23-3.59,42.44-1.29,14.43,2.47,28.24,13.39,34.27,18.62.44.38.72.3.77,1.46.26,9,1.14,19.12.68,28,.2,1.62,0,2,2.16,2.84,5.09,2.09,12.26,6.08,16.23,15.84,5.61,13.83,11.81,22.19,5.19,39.37-1.86,4.73-3.44,2.72-5.28,1-9.53-8.55-20.94-17.09-26.94-21.77a132,132,0,0,0,.09,23.35c.19,2.18-1.34,1.95-2.85,2s-3.33.26-5,.39L626.36,121a32.53,32.53,0,0,0-5.26,1.86c12,15,21,12.51,19.87,33.13s-1.3,21.86-2.34,31.53c-.57,5.53,3.37,8.15,6.61,12.47,1.34,1.79-.29,2.5,7.48,2.07,26.55-1.46,50.51,17.89,62.22,28.21,1,1.15,1.78,1.75,5.58-2.43,3.16-3.42,3.76.45,8.2.83,3.88.32,1.7,3.37,18.55-4.88,4.41-2.2,3.84-.59,5.05,1.47A125.78,125.78,0,0,1,759,238.7c2.38,5.38,11.57,12.11,6.1,18a109.1,109.1,0,0,1-4.39,12.43c-1.44,3.08,2.72,4.22-3.92,6.4,5.07,11.45,32.39,40.18,70.46,56.14,26.35,11,28.34,17.23,62.24,18.51,8.55-.13,17.32,3.6,26,5.73-1.1-3.56-1.78-6.88-2.9-10.44-1.23-1.78,1.19-6.07,5.21-1.26,2.43,2.83,21.21,10.88,23.13,11.14L940,345.18c.41-6.87,1.83-16.54-.07-20.56-2.21-4.78.75-5.25,3.09-4.78,3.27.65,13.16,3.12,17.78,10.33l-.17-7.72s-.7-8.59,6.61-.84c8.2,8.64,13.18-2.37,32,36.35,11.64,24.17,1.18,13.54,27.39,42.84,24.61,27.55,17.32,26.68,21.72,35.1,3.78,7.19,25.43,47.84,28.13,51.52,4,5.48,9.55,10.22,11.13,15.77,5,14.21,9.47,26.41,14.11,42.48,3.88,13.36,2,13-4.12,20.51-3.75,4.59-3.65,4.75-14.06,14.75-5.16,5-4.55-.26-6.55-2.51-6.29-7.18-5.38,0-8.28,3.23-1.8,2-3.36,13.56-16.83,11-13-2.53-24.76-4.25-26-7.06-1.62-3.7-1.48-9.27-.86-14.33.76-6.77-.39-4.47-4.76-7.47-5.46-3.75-39.51-21.25-61.23-32.33-25.83-13.14-29.72-13.64-34.23-18.11-4-4-5.9.72-8,2.8-10.83,10.5-21.38,23.68-31.34,34.79-2,2.27-3.39,3.93-2.84,12.32,1.49,22.81.17,67.21-6.8,78.61,24.29,40,19.21,63.41,23.22,73.6.94,2.41-.28,6.6,2.52,12.64,19.6,42.4,33.24,73.36,37.34,82.91,3.52,8.15,15.88,38.78,37,55.62,8.4,6.73,18,21.87,26.34,30.41,3.29,3.34,2.81,5.27,8.67,4.54s10.62-1.11,14.6.28,4.54-3.28,7.67,1.12c7,6.93,15.13,14.54,21.1,20.78,2.14,2.18,4.61.82-.92,3.91-13.15,7.32-32.53,16.39-47.77,17.17-8.16.88-6.78-1-9.91-7-1.19-2-7.14-8.23-9.84-11.56L969.93,925c-2.7-.16-2.68-1.61-4.21-4.32-10.59-18.82-17.53-31.16-28.48-50-2.48-4.26-16.62-18.58-19.16-19.43-6.27-2.08-8.82-10.1-17.2-25.87-8.89-16.63-33.15-55.88-44.73-64.88,1.08,10.6,19.94,73.76,23,77.31,1.19,1.43.75,3.05.62,4.5-.68,7.87.19,17.18.15,25.54-.2,3.45,1.58,5.56,3.27,9.1,9.24,19.38,28.69,51,35,61.13,3.82,6.12,32,18.83,34.21,19.64,8.75,3.19,6.63,2.72,7.91,7.17,2.89,10.33,4,10.21.56,12.21-4.45,2.57-4.68,6.47-11,8.9-11.07,4.2-16.32,8.17-26.82,6.5-7.92-1.23-10.7,0-12.53-5.61a125.05,125.05,0,0,1-4.23-18.32c-1.3-10.28-.67-8-6.52-10.83s-9.39-4.7-12.56-6-3-.84-3.89-3.61c-1.66-5.62-18.44-66-33.26-83.8-3.37-4.05-2.37-.75-7-16.58-13.67-42.2-55.61-103.68-89-140.23-28.37,4-86.36-5.61-101.4-10.32l-8.13,9.56c-26-10.13-49.08-14-64.51-26.75l2.91-8.9C543.43,659.56,455,587.28,431.23,563.9l-4.52,5.16-28.59-27.55,4.2-7.46L390.53,520.9c-25.41,39.05-51.74,68.69-117.82,61.73-1,7.06,22.28,42.92,22.3,47.51-7.39,15.26-16.95,32.6-19.12,43.12-9.1,6.26-17.62,10.78-27.28,18.75-1.93,1.58-6.37,6.1-6.46-1.07-.21-14.92-7.77-44.15-7.74-46.68.06-2.93-.66-3.82,5.32-7,6.65-3.39,6.62-10.59,3.36-21.87-1.31-4.52-6.16-23.61-18.42-42.46-3.95-6.06-36.51-27.08-52.26-31.92-13.26-4.14-13.57,6.08-13.19,16.26,1,29.66-1.12,61.41-1.75,72.77C156.57,646,153,650.71,141,660.44c-17.79,14.38-28.41,28.14-46.41,36.27-2.89,1.27-6,6.62-6.25,0-.42-15.45-2.31-21.77-4-29.16-2.18-9.73-4.36-7.29,2.72-9.94,11.93-4.56,11.62-4.46,20.14-7.44L103.49,635c-2.67-2.88,1.61-4.35,6.15-6.54,6.23-3,16.13-3.65,16.13-20.2,0-33.24-3.43-102.93-4.33-113.93-2.07-24.71,2.62-22.19,40.3-19.2,21.62,1.67,31.5,3,60-5.71-17-38.14-18.79-85.33-1.54-120.93-23-1.06-35,17.42-36.22,38.32-.16,2.51-4.23,1.58-3.78-.58,3.25-15,.19-35.2-.49-40.25-.88-6.6-5.26-20,11.64-34.26-3.7-.91-7.68-3-11.55-2.71-11.73,1.81-21.75,12.54-21.69,16l-2.87.27c-.28-7.7,2.9-19.87,4.11-23,1.6-4.2-2.21-2.35-4.35-2.23-16.46,1.08-33,9.12-51.6,18.92-13.31,7-24.74,9.1-37.83,1.21-22.77-13.67-26.32-16.89-30.29-19.14-1.61-.91-2.64-4.65,1.93-4,15.58,2.32,26.81-3,31.77-3.23-29.45-13.31-33.44-69.09-67-75.42-2.46-.46-3-3.1.53-4,15.09-3.78,50.93,24.68,73.66,28.22a89.11,89.11,0,0,0-3-13.52c-.93-3.28.22-4.94,2.79-3.78,12.4,5.46,19.41,6.45,40.37,3.34,14.12-2.09,15.46-9.53,41.09-13.83,13.86-2.38,19.81-3.56,23-4.23-9.55-7.05-13.87-8.89-18-9.7a22.26,22.26,0,0,0-9.11,1.28c-.72.37-3.81-3.87.31-5.92,21.73-10.68,62.57,7.51,74.6,20,2-5.29-1.21-14.21-3.3-15.92-3.16-2.59-7.48-8.54,3.33-6.06,7.73,1.76,15.51,15,19.83,21.47,27,12,28,32.75,19.64,54.88l5.17,19.8c83.77-41,182.9-6.42,250.79,51,2.05,1.71,3.38,3.54,8.56,2.38l11-2L537,318.17l1.66-2.84c-2.06-12.3,2.81-15.94-5-20.79-8.8-5.42-10.45-4.93-12.54-11.26-11.88-36.07-12.7-52-22.65-65.57-6.62-9.12-2.2-12.46-12.93-22.48-2.14-2-1.77-3.26-5.2-3.16-25.91-.34-44.18.12-52.85,1-25.31,2.68-31.73-5.89-44.32-8.44-6.84-1.4-6.15-.41-11.07-3.95-14.93-10.75-24.95-12.37-29.65-12.67-4-.3-5.55.69-5.23-4.63.44-3-1.23-3.28-2.29-3.72-6.58-2.54-6.15-7.63-6.84-12,.16-3.94-3.22-3.29-4.94-3.67-16.49-3.6-18.94-9.66-26.77-24.14-3.79-7-1.41-4.54,2.49-10.33a51.34,51.34,0,0,1,16.24-15.86c4.7-2.81,7-2.38,13.5-.72,3.07-4,2.94-3.84,4.29-5.54s14.11-8,11.15,1.53c-2.3,7.38,7.93,13.19,8.37,14.29.3.72,10.09,7.84,11,20.19.27,5.25,2,.38,5.24,2.18a53.14,53.14,0,0,0,12.27,5c7.91,1.87,2.27,2.7,12.59-2.48,31.36-15.85,44.25-7.39,56.09-2.26,8.47,3.66,8.15,1,13.3-4.19,5.83-5.84,10.48-3.52,14.42-2,3,1.16,2.27.58,6.16-1.12,9.56-4.77,17-9.72,25.58-14.61,3.43-2.2,12.33-7.82,23.64-3.1,1.57.66,3.34,2.59,3-.38A105.71,105.71,0,0,0,533,86.54c-1.93-7.64-.83-5.88-.2-9.13s3.26-1.87,4.11-1.06c4.5,4.5,3.15,2.24,4.56-8.14-26.58-7.23-36.53-17.75-40.32-19-3.25-1-1-3.17.69-3.93,10.62-5,33.48-.71,44.28-3,9.23-2,8.81-1.25,9.74-5.74,2.7-13.49,5.54-21,7.54-30.22.54-2.44-.42-3.15,3.28-4m89.75,220.92,23.39-2.19c2.32,2.9,1.72,2.69,2.94,8.25l13,2,6.91.28c-4.18-3.61-11.07-10.55-18-13.1s-16.18-7.17-23-6.73l-9.45.87Zm49.51,50c-2.38-2.25-4.47-1.38-6.84-1.29-9.78.58-27,3.72-40.52,5.58-2.63.53-3.48,2.23-2,3.45,11.22,9.52,11,10.83,24.6,19.46,16.24,10.38,48.05,34.32,59.05,54.51,6.44,11.73,11.47,24.17,17.2,36.25L789.75,386c-1.45-3.11-3.7-6.83-1.59-7.89.75-.39,5.37-1.23,5.89-.77,3.33,3.23,16,3.4,17.05,3.59,11.47,2.2,16.23-4.23,27.9,2.21.72.39,3.31,1.69,2.45.64-2.42-3.06-6.65-9-9.82-11.08-1.44-.95-.44-3.7,2.23-3.48,5,.49,12,2.64,19.42.86,7.7-1.31,13.59-6,20-9.32-28.56-6.92-61.7-22.33-81.38-36.35-20-14.2-41.08-34.85-47.48-45.19a2.7,2.7,0,0,0-3.11-.92c-4.34,1.32-12.34,1.72-24,3.39-5.39-3.71-8.25-5.57-11.31-8.4"/></g></svg>