<svg xmlns="http://www.w3.org/2000/svg" width="259.223" height="59.079" viewBox="0 0 259.223 59.079"><defs><style>.a{fill:#d08c00;}.b{fill:rgba(80,0,0,0.96);}</style></defs><g transform="translate(69.333 12.951)"><path class="a" d="M988.885,606.331c-.386.438-.953,1.084-1.7,1.958a26.435,26.435,0,0,1-2.074,2.2l-.993.9-2.407-.085q-1.953,0-6.679-.043l-4.936-.085-.873.071-1.2.141.138-1.8.066-1.466v-9.554H962.8a25.741,25.741,0,0,0,5.43-4.706v-7.284l-5.346.042,1.776-1.252q.421-.3,2.285-1.841a19.2,19.2,0,0,0,1.581-1.5c.856.105,1.889.171,3.112.206h2.113q6.8.126,10.618-.166l3.152-.25-.741.748q-1.9,1.922-4.511,4.138a20.022,20.022,0,0,1-4.67.5l-3.847.171.038,6.178q2.773,0,5.46-.04h5.41q-2.445,3.623-4.9,4.526a11.27,11.27,0,0,1-4.558.529l-1.288-.056-.25-.028.042,1.713A26.756,26.756,0,0,0,974,603.2v3.382c.6,0,2.449-.014,5.553-.039Z" transform="translate(-962.797 -578.471)"/><path class="a" d="M1013.09,606.137a46.386,46.386,0,0,0-5.846,3.795q0-2.587.12-5.179v-5.18a130.751,130.751,0,0,0-.621-14.906l-.162-1.756c-.116-1.032-.583-1.549-1.411-1.549a4.132,4.132,0,0,0-1.29.252l-.327.167-.334-.664,5.46-3.888.832-.5a3.163,3.163,0,0,1,1.207-.336,1.325,1.325,0,0,1,1.336.709,13.73,13.73,0,0,1,.248,1.628v4.089Z" transform="translate(-978.29 -576.393)"/><path class="a" d="M1069.246,597.861a5.707,5.707,0,0,1,.168,1.384q0,2.665-2.742,6.01a17.523,17.523,0,0,1-3.317,3.092l-1.494.918-.745.46-.707.378a11.159,11.159,0,0,1-5.269,1.458,9.636,9.636,0,0,1-6.384-2.3,19.039,19.039,0,0,1-4.315-5.43,13.584,13.584,0,0,1-1.533-5.472q0-6.849,3.562-10.61a24.644,24.644,0,0,1,6.348-4.638,16.681,16.681,0,0,1,6.1-1.625c.583-.054,1.183-.084,1.788-.084l2.323.252q2.779.453,2.779,2a1.377,1.377,0,0,1-.707,1.208l-3.431,2.218-1.075.625a11.138,11.138,0,0,0-2.649-2.215,5.308,5.308,0,0,0-2.94-.712,5.2,5.2,0,0,0-3.39,1.216,6.158,6.158,0,0,0-2.049,3.092,13.073,13.073,0,0,0-.558,3.759,17.634,17.634,0,0,0,.621,4.38L1050,598.7a11.9,11.9,0,0,0,3.95,6.057,9.756,9.756,0,0,0,6.472,2.671,3.286,3.286,0,0,0,2.623-1.063,4.071,4.071,0,0,0,.932-2.781,7.665,7.665,0,0,0-.121-1.251l-.294-1a5.549,5.549,0,0,0-4.188-3.965l-.459-.132,1.2-.957a23.9,23.9,0,0,1,2.323-1.712,4.543,4.543,0,0,1,2.656-.752q3.148,0,4.149,4.05" transform="translate(-993.306 -578.315)"/><path class="a" d="M1111.334,614.058l-5.015,3.507a35.355,35.355,0,0,0-1.453-3.465,9.28,9.28,0,0,0-4.4-4.806,12.639,12.639,0,0,0-3.6-1.082,9.4,9.4,0,0,0-1.247-.085q-2.866,0-2.865,1.755a2.825,2.825,0,0,0,1.744,2.335,6.177,6.177,0,0,0,2.989.883h.537a6.61,6.61,0,0,0,2.987-.627l.5.576-.088.085-1.947,1.82q-2.775,2.611-4.979,2.61h-.581a2.659,2.659,0,0,0-.371-.047q-5.434-.614-5.433-4.2,0-3.245,4.767-6.125a14.353,14.353,0,0,1,3.571-1.46l.538-.079.827-.21,1.455-.336-.5-.828q-2.07-3.5-4.354-3.5a2.646,2.646,0,0,0-1.452.412l-.332-.458,2.822-2.386q2.4-2.041,3.524-2.043,1.7,0,5.891,6.185a63.218,63.218,0,0,1,3.568,5.924c.388.812,1.172,2.354,2.363,4.639Z" transform="translate(-1010.633 -584.026)"/><path class="a" d="M1148.627,613.492l-1.579.963a44.8,44.8,0,0,0-4.394,3.1l-.247-11.362-.916,1.138-.457.889q-.993,1.44-3.858,4.9l-1.363,1.648-.126.084-1.495,1.3-1.244,1.058a1.66,1.66,0,0,1-1.077.34c-.97,0-1.649-.617-2.03-1.853a11.715,11.715,0,0,1-.376-1.686l-1.2-9.7a11.44,11.44,0,0,0-.374-2.215,1.584,1.584,0,0,0-1.617-1.126,6.614,6.614,0,0,0-.875.039l-.289.045-.207-.839,6.221-3.673a1.766,1.766,0,0,1,.919-.166q1.2,0,1.2,1.037l.453,4.726.332,2.172.487,3.549a3.124,3.124,0,0,0,.374,1.172,1.087,1.087,0,0,0,1.164.7c.747,0,1.7-.565,2.86-1.707a10.849,10.849,0,0,0,3.616-7.979,26.76,26.76,0,0,1,6.1-4.219c-.169,1.732-.248,3.794-.248,6.2v5.017Z" transform="translate(-1024.734 -583.844)"/><path class="a" d="M1184.454,613.7l-2.028,1.508q-3.446,2.546-6.019,2.544-4.272,0-6.922-5.513a9.67,9.67,0,0,1-1-4.218,9.78,9.78,0,0,1,3.691-7.6q4.394-3.846,8.005-3.843a6.111,6.111,0,0,1,3.694,1.251,2.589,2.589,0,0,1,1.245,2.044,2.876,2.876,0,0,1-1.372,2.215l-1,.753-.37.25-.538.375-.375.291-1.118.59a4.843,4.843,0,0,0-1.37-2.863,3.675,3.675,0,0,0-2.741-1.356,2.878,2.878,0,0,0-1.949.831l-.5.463a3.836,3.836,0,0,0-.706,2.336,10.036,10.036,0,0,0,1.891,5.56,8.184,8.184,0,0,0,4.372,3.587,7.561,7.561,0,0,0,1.493.3l.706.038a6.1,6.1,0,0,0,2.243-.379Z" transform="translate(-1041.441 -584.132)"/><path class="a" d="M1219.614,606.613l-1.285.8-1.247.876-1.411.917-1.366.966a37.4,37.4,0,0,0-1.7-12.4,1.743,1.743,0,0,0-1.66-1.386q-2.156,0-7.548,7.085a27.659,27.659,0,0,0-3.65,6.7l-.955-.378.166-2.179V595.072c.03-1.369.03-2.388,0-3.062v-1.089l-.206-3.944q-.043-.712-.125-2.436-.543-3.019-1.745-3.02a3.55,3.55,0,0,0-1.453.42l-.374.252-.205-.8c-.025-.086.469-.459,1.495-1.123l4.726-3.054,1.037-.5a1.247,1.247,0,0,1,.542-.128c1.158,0,1.743.952,1.743,2.842,0,.952.012,2.006.042,3.178,0,.272.022.758.063,1.436s.058,1.206.058,1.569v13.742l4.647-5.473q4.143-4.883,6.388-4.882,1.575,0,2.53,4.516a46.7,46.7,0,0,1,.788,5.274l.249,2.68.126,1.8.084,1.593Z" transform="translate(-1051.547 -576.468)"/><path class="a" d="M1257.707,601.632a10.334,10.334,0,0,1,.874,3.968,8.741,8.741,0,0,1-1.664,5.013,25.52,25.52,0,0,1-3.565,4.007q-3.232,3.139-6.633,3.134a6.005,6.005,0,0,1-4.2-1.8,9.319,9.319,0,0,1-2.484-3.968,8.325,8.325,0,0,1-.46-2.631q0-3.086,3.154-5.635a25.794,25.794,0,0,1,3.07-2.215l-.495,1.54a9.68,9.68,0,0,0-.541,2.887,7.135,7.135,0,0,0,3.94,6.809l.789.414a3.5,3.5,0,0,0,1.37.3c1.629,0,2.554-1.063,2.775-3.173a11.856,11.856,0,0,0-.995-4.849,8.816,8.816,0,0,0-3.112-3.8,6.843,6.843,0,0,0-3.858-1.211h-.536a2.756,2.756,0,0,1-.536.081l-.875.211-.122-.753,1.657-1.209a9.911,9.911,0,0,1,5.807-2.174,6.681,6.681,0,0,1,5.557,3.047,9.678,9.678,0,0,1,1.079,2.007" transform="translate(-1068.691 -584.131)"/></g><g transform="matrix(0.996, 0.087, -0.087, 0.996, 4.734, 0)"><path class="b" d="M25.957.037A7.142,7.142,0,0,0,23.7.165a4.211,4.211,0,0,0-1.733,1.148c-.022.022-.038.019-.034.081.028.481.028,1.021.094,1.489,0,.087.007.1-.1.161a1.489,1.489,0,0,0-.789.916c-.233.761-.524,1.233-.093,2.115.12.243.2.128.285.031.466-.5,1.032-1,1.33-1.281a7.045,7.045,0,0,1,.1,1.24c0,.116.08.1.161.092s.178,0,.268,0l.149.451a1.718,1.718,0,0,1,.288.074c-.571.854-1.059.762-.9,1.852s.171,1.155.271,1.664c.056.291-.141.448-.293.692-.063.1.027.132-.388.145a5.048,5.048,0,0,0-3.174,1.786c-.05.066-.086.1-.308-.1-.184-.167-.2.042-.432.082-.2.035-.075.187-1.008-.174-.244-.1-.206-.013-.262.1a6.694,6.694,0,0,0-.289.747c-.1.3-.559.7-.241.982a5.853,5.853,0,0,0,.291.64c.091.157-.125.236.238.322a8.177,8.177,0,0,1-3.482,3.308c-1.348.709-1.425,1.047-3.219,1.272a5.785,5.785,0,0,0-1.353.425c.042-.194.063-.374.106-.568.057-.1-.092-.316-.282-.043a5.576,5.576,0,0,1-1.177.7v-.542a3.215,3.215,0,0,1-.092-1.093c.1-.264-.064-.275-.186-.24a1.517,1.517,0,0,0-.9.631l-.027-.411s0-.46-.354-.014c-.4.5-.711-.065-1.531,2.079a4.78,4.78,0,0,1-1.256,2.4c-1.179,1.577-.8,1.5-.991,1.965-.167.4-1.129,2.658-1.255,2.866a3.22,3.22,0,0,0-.518.889c-.2.778-.38,1.446-.552,2.321-.144.728-.044.7.314,1.071a6.2,6.2,0,0,0,.815.718c.3.241.241-.035.336-.164.3-.41.286-.025.455.133.1.1.241.7.944.5.678-.194,1.3-.341,1.346-.5a1.587,1.587,0,0,0-.021-.765c-.072-.356,0-.239.218-.419.273-.224,2-1.312,3.1-2,1.311-.818,1.515-.862,1.734-1.121.195-.232.316.011.44.111.624.508,1.245,1.158,1.826,1.7.117.111.2.193.208.641.027,1.218.3,3.57.726,4.143a9.178,9.178,0,0,0-.892,4.017,2.54,2.54,0,0,1-.075.683c-.845,2.343-1.425,4.05-1.6,4.576a7.863,7.863,0,0,1-1.708,3.125c-.415.4-.853,1.245-1.258,1.737-.159.192-.125.292-.439.281a1.8,1.8,0,0,0-.774.082c-.2.089-.256-.153-.4.1-.34.4-.736.842-1.024,1.2-.1.126-.241.065.067.2a6.745,6.745,0,0,0,2.617.69c.437.009.355-.085.493-.421.054-.109.341-.47.469-.659l.839-.139c.142-.021.135-.1.2-.249C9.5,49.6,9.81,48.913,10.3,47.862a5.423,5.423,0,0,1,.927-1.121c.323-.139.421-.578.793-1.453A16.9,16.9,0,0,1,14.1,41.635a29.727,29.727,0,0,1-.861,4.212.291.291,0,0,0-.012.242c.073.415.07.914.11,1.357a.965.965,0,0,1-.132.5c-.4,1.072-1.287,2.839-1.573,3.408a7.2,7.2,0,0,1-1.725,1.2c-.45.21-.339.175-.386.418-.106.562-.167.561.027.651.248.116.279.322.627.422a2.481,2.481,0,0,0,1.455.221c.415-.1.568-.049.639-.356a6.654,6.654,0,0,0,.14-.993c.021-.552,0-.426.3-.605s.477-.293.64-.376.156-.058.189-.21c.062-.306.673-3.592,1.378-4.6.16-.231.123-.051.3-.913a25.137,25.137,0,0,1,4.073-7.859,18.455,18.455,0,0,0,5.337-1.019l.476.47c1.331-.659,2.542-.972,3.3-1.72l-.2-.459c2.042-.8,6.4-5.045,7.556-6.4l.264.253,1.39-1.6-.258-.376.565-.753c1.531,1.956,3.066,3.408,6.544,2.732.087.37-.984,2.382-.964,2.626a13.778,13.778,0,0,1,1.215,2.2c.512.29.986.491,1.536.869.11.075.366.294.338-.087a21.474,21.474,0,0,1,.194-2.515c-.017-.155.018-.206-.315-.344-.369-.15-.4-.532-.28-1.146a8.1,8.1,0,0,1,.781-2.34,9.216,9.216,0,0,1,2.627-1.938c.685-.281.749.26.776.8.082,1.58.344,3.256.431,3.856a1.793,1.793,0,0,0,1.015,1.536,12.243,12.243,0,0,0,2.633,1.711c.16.054.351.324.332-.031a6.488,6.488,0,0,1,.074-1.567c.071-.527.2-.407-.19-.515-.655-.187-.638-.183-1.1-.3l.129-.822c.128-.166-.106-.224-.357-.319-.345-.13-.874-.119-.95-1-.156-1.765-.3-5.482-.3-6.07-.005-1.322-.242-1.166-2.229-.832a6.73,6.73,0,0,1-3.216-.025,7.935,7.935,0,0,0-.479-6.429c1.215-.163,1.938.763,2.1,1.867.02.133.232.064.2-.049a6.9,6.9,0,0,1-.16-2.14,1.667,1.667,0,0,0-.777-1.766,2.036,2.036,0,0,1,.6-.2,1.556,1.556,0,0,1,1.226.749H49.3a4.2,4.2,0,0,0-.325-1.2c-.1-.216.107-.135.221-.138a7.255,7.255,0,0,1,2.828.765,1.857,1.857,0,0,0,2.014-.111c1.146-.832,1.32-1.019,1.52-1.157.081-.056.119-.259-.121-.2a4.817,4.817,0,0,1-1.7-.024c1.5-.844,1.455-3.824,3.211-4.317.129-.036.144-.178-.047-.21-.819-.131-2.59,1.547-3.781,1.841a4.74,4.74,0,0,1,.1-.732c.034-.178-.035-.261-.166-.187a3.184,3.184,0,0,1-2.128.365c-.759-.046-.865-.434-2.246-.544-.747-.062-1.068-.1-1.241-.118a2.372,2.372,0,0,1,.912-.6,1.192,1.192,0,0,1,.49.026c.04.016.184-.223-.044-.313-1.2-.467-3.288.689-3.869,1.41a1.028,1.028,0,0,1,.1-.861c.156-.153.358-.488-.2-.307-.4.129-.754.871-.954,1.232-1.378.76-1.335,1.869-.788,3.006l-.183,1.075c-4.639-1.79-9.743.508-13.082,3.871a.414.414,0,0,1-.443.166l-.6-.056L29,16.666l-.1-.143c.052-.662-.223-.833.167-1.127.442-.329.532-.311.614-.656.464-1.97.433-2.819.9-3.587.309-.515.059-.671.582-1.254.1-.117.079-.181.262-.192,1.375-.138,2.347-.2,2.812-.19a4.715,4.715,0,0,0,2.314-.653c.357-.106.325-.05.569-.261a3.045,3.045,0,0,1,1.516-.81c.211-.034.3.011.256-.27-.038-.157.05-.179.1-.208.338-.166.291-.434.307-.671-.027-.209.156-.19.246-.218.859-.268.961-.6,1.309-1.406.169-.389.054-.248-.18-.537a2.737,2.737,0,0,0-.936-.767c-.263-.127-.381-.094-.72.024-.182-.2-.174-.19-.254-.274s-.786-.361-.585.133c.156.381-.359.737-.378.8a1.714,1.714,0,0,0-.491,1.123c.01.28-.1.029-.268.14a2.834,2.834,0,0,1-.629.32c-.411.136-.108.154-.68-.073a2.8,2.8,0,0,0-2.989.141c-.433.233-.429.088-.726-.161a.6.6,0,0,0-.775-.039c-.152.076-.118.041-.332-.031-.53-.209-.95-.437-1.426-.657a1.307,1.307,0,0,0-1.27-.055c-.08.043-.165.153-.16-.006a5.69,5.69,0,0,1,.083-.751c.068-.414.017-.316-.031-.485s-.182-.084-.223-.038c-.218.26-.157.134-.28-.411a7.09,7.09,0,0,0,2.053-1.194c.168-.07.036-.173-.055-.205-.587-.218-1.781.118-2.365.047-.5-.063-.474-.026-.544-.26C26.484,1.1,26.3.711,26.149.232c-.04-.127.008-.169-.193-.195M22.215,12.185l-1.252-.008c-.11.165-.079.151-.118.452l-.684.164-.366.047A3.6,3.6,0,0,1,21.882,11.6l.506,0Zm-2.4,2.884c.116-.13.231-.094.357-.1.522-.014,1.453.072,2.178.109.142.016.2.1.121.174A8.056,8.056,0,0,1,21.258,16.4a10.76,10.76,0,0,0-2.883,3.169c-.287.653-.5,1.337-.745,2l-1.742-.129c.063-.172.165-.38.048-.426A.776.776,0,0,0,15.619,21c-.162.187-.836.255-.889.27-.6.17-.881-.15-1.471.247-.036.024-.168.1-.127.046a3.271,3.271,0,0,1,.47-.634c.072-.057.006-.2-.135-.174a2.834,2.834,0,0,1-1.027.136,3.591,3.591,0,0,1-1.1-.4,14.051,14.051,0,0,0,4.153-2.308A11.448,11.448,0,0,0,17.8,15.561a.145.145,0,0,1,.161-.063c.236.05.663.035,1.293.069a5.1,5.1,0,0,0,.562-.5" transform="translate(0 0)"/></g></svg>