<svg xmlns="http://www.w3.org/2000/svg" width="275.769" height="64.804" viewBox="0 0 275.769 64.804"><defs><style>.a{fill:#fff;}</style></defs><g transform="translate(82.803 15.68)"><path class="a" d="M989.309,606.729c-.392.445-.969,1.1-1.728,1.989a26.869,26.869,0,0,1-2.108,2.233l-1.009.916-2.446-.086q-1.985,0-6.787-.044l-5.016-.086-.888.073-1.221.143.141-1.833.068-1.49v-9.709H962.8a26.16,26.16,0,0,0,5.518-4.782v-7.4l-5.432.043,1.8-1.272q.427-.3,2.321-1.87a19.553,19.553,0,0,0,1.606-1.524c.87.107,1.92.173,3.163.209h2.147q6.908.129,10.79-.168l3.2-.254-.753.76q-1.933,1.953-4.585,4.2a20.332,20.332,0,0,1-4.746.507l-3.91.173.038,6.278q2.818,0,5.549-.041h5.5q-2.484,3.682-4.977,4.6a11.455,11.455,0,0,1-4.632.538l-1.308-.057-.254-.028.043,1.741a27.213,27.213,0,0,0,.3,3.054v3.437c.612,0,2.489-.014,5.643-.04Z" transform="translate(-962.797 -578.417)"/><path class="a" d="M1013.25,606.619a47.111,47.111,0,0,0-5.941,3.857q0-2.629.121-5.263v-5.264a132.878,132.878,0,0,0-.631-15.147l-.165-1.785c-.118-1.049-.593-1.574-1.434-1.574a4.2,4.2,0,0,0-1.311.256l-.333.17-.339-.674,5.548-3.952.846-.508a3.212,3.212,0,0,1,1.227-.342,1.347,1.347,0,0,1,1.357.721,14,14,0,0,1,.252,1.655v4.155Z" transform="translate(-977.887 -576.393)"/><path class="a" d="M1069.672,598.128a5.788,5.788,0,0,1,.171,1.406q0,2.708-2.786,6.108a17.82,17.82,0,0,1-3.371,3.142l-1.518.932-.758.467-.718.384a11.341,11.341,0,0,1-5.354,1.482,9.794,9.794,0,0,1-6.488-2.333,19.359,19.359,0,0,1-4.384-5.518,13.8,13.8,0,0,1-1.557-5.56q0-6.96,3.619-10.782a25.042,25.042,0,0,1,6.451-4.713,16.956,16.956,0,0,1,6.194-1.652c.593-.055,1.2-.085,1.817-.085l2.36.256q2.825.461,2.824,2.036a1.4,1.4,0,0,1-.718,1.227l-3.487,2.254-1.092.635a11.319,11.319,0,0,0-2.692-2.251,5.394,5.394,0,0,0-2.988-.724,5.282,5.282,0,0,0-3.444,1.236,6.257,6.257,0,0,0-2.083,3.142,13.282,13.282,0,0,0-.567,3.82,17.912,17.912,0,0,0,.631,4.451l.38,1.491a12.089,12.089,0,0,0,4.015,6.155,9.912,9.912,0,0,0,6.577,2.715,3.34,3.34,0,0,0,2.666-1.08,4.138,4.138,0,0,0,.947-2.826,7.8,7.8,0,0,0-.123-1.272l-.3-1.02a5.638,5.638,0,0,0-4.256-4.029l-.467-.134,1.222-.972a24.242,24.242,0,0,1,2.361-1.74,4.619,4.619,0,0,1,2.7-.764q3.2,0,4.216,4.115" transform="translate(-992.502 -578.265)"/><path class="a" d="M1111.71,614.346l-5.1,3.563a36.064,36.064,0,0,0-1.477-3.521,9.427,9.427,0,0,0-4.472-4.883,12.847,12.847,0,0,0-3.662-1.1,9.563,9.563,0,0,0-1.268-.086q-2.912,0-2.911,1.783a2.871,2.871,0,0,0,1.772,2.373,6.276,6.276,0,0,0,3.038.9h.546a6.716,6.716,0,0,0,3.035-.637l.509.585-.089.086-1.979,1.849q-2.82,2.654-5.06,2.653h-.59a2.716,2.716,0,0,0-.377-.047q-5.522-.624-5.521-4.271,0-3.3,4.844-6.224a14.586,14.586,0,0,1,3.629-1.483l.546-.081.841-.214,1.479-.341-.508-.841q-2.1-3.558-4.424-3.555a2.689,2.689,0,0,0-1.476.419l-.337-.465,2.868-2.424q2.442-2.073,3.581-2.076,1.729,0,5.987,6.285a64.263,64.263,0,0,1,3.626,6.021c.394.825,1.191,2.392,2.4,4.714Z" transform="translate(-1009.377 -583.826)"/><path class="a" d="M1149.011,613.779l-1.6.979a45.494,45.494,0,0,0-4.466,3.146l-.25-11.546-.931,1.157-.465.9q-1.009,1.463-3.921,4.979l-1.385,1.675-.128.086-1.519,1.326-1.264,1.076a1.687,1.687,0,0,1-1.1.345c-.986,0-1.676-.627-2.063-1.883a11.942,11.942,0,0,1-.382-1.714l-1.223-9.858a11.632,11.632,0,0,0-.38-2.251,1.61,1.61,0,0,0-1.643-1.144,6.717,6.717,0,0,0-.889.04l-.294.046-.21-.853,6.322-3.732a1.8,1.8,0,0,1,.933-.168q1.222,0,1.223,1.054l.461,4.8.337,2.206.495,3.607a3.176,3.176,0,0,0,.38,1.19,1.1,1.1,0,0,0,1.182.715c.76,0,1.725-.574,2.907-1.734a11.025,11.025,0,0,0,3.675-8.109,27.184,27.184,0,0,1,6.2-4.287c-.172,1.76-.251,3.856-.251,6.3v5.1Z" transform="translate(-1023.111 -583.65)"/><path class="a" d="M1184.713,613.979l-2.061,1.532q-3.5,2.587-6.117,2.585-4.341,0-7.035-5.6a9.831,9.831,0,0,1-1.014-4.286,9.939,9.939,0,0,1,3.751-7.721q4.466-3.908,8.135-3.9a6.21,6.21,0,0,1,3.754,1.271,2.631,2.631,0,0,1,1.264,2.077,2.922,2.922,0,0,1-1.393,2.251l-1.012.765-.376.254-.546.381-.381.3-1.137.6a4.923,4.923,0,0,0-1.392-2.91,3.735,3.735,0,0,0-2.785-1.378,2.925,2.925,0,0,0-1.981.845l-.505.47a3.9,3.9,0,0,0-.718,2.373,10.2,10.2,0,0,0,1.922,5.651,8.317,8.317,0,0,0,4.442,3.646,7.69,7.69,0,0,0,1.518.3l.718.038a6.2,6.2,0,0,0,2.279-.385Z" transform="translate(-1039.383 -583.93)"/><path class="a" d="M1220.015,607.1l-1.306.815-1.268.89-1.433.932-1.388.981a38.016,38.016,0,0,0-1.728-12.6,1.772,1.772,0,0,0-1.687-1.409q-2.191,0-7.67,7.2a28.128,28.128,0,0,0-3.709,6.807l-.971-.384.169-2.215V595.371c.03-1.392.03-2.427,0-3.112v-1.106l-.209-4.008q-.044-.723-.127-2.476-.551-3.067-1.773-3.069a3.606,3.606,0,0,0-1.476.427l-.38.256-.209-.809c-.025-.088.477-.467,1.519-1.141l4.8-3.1,1.054-.51a1.26,1.26,0,0,1,.55-.13c1.178,0,1.772.967,1.772,2.888,0,.967.012,2.038.042,3.23,0,.277.022.771.064,1.459s.059,1.226.059,1.595v13.964l4.723-5.562q4.21-4.963,6.491-4.961,1.6,0,2.57,4.59a47.4,47.4,0,0,1,.8,5.359l.253,2.723.129,1.828.085,1.619Z" transform="translate(-1049.225 -576.466)"/><path class="a" d="M1258,601.714a10.507,10.507,0,0,1,.888,4.032,8.887,8.887,0,0,1-1.691,5.094,25.938,25.938,0,0,1-3.623,4.072q-3.285,3.19-6.74,3.185a6.1,6.1,0,0,1-4.265-1.827,9.468,9.468,0,0,1-2.524-4.032,8.472,8.472,0,0,1-.467-2.674c0-2.09,1.067-4,3.2-5.726a26.216,26.216,0,0,1,3.119-2.251l-.5,1.565a9.824,9.824,0,0,0-.55,2.933,7.25,7.25,0,0,0,4,6.919l.8.421a3.557,3.557,0,0,0,1.393.3c1.655,0,2.6-1.081,2.821-3.225a12.048,12.048,0,0,0-1.011-4.928,8.958,8.958,0,0,0-3.163-3.859,6.951,6.951,0,0,0-3.92-1.231h-.545a2.788,2.788,0,0,1-.546.083l-.888.214-.124-.765,1.684-1.228a10.071,10.071,0,0,1,5.9-2.209,6.79,6.79,0,0,1,5.647,3.1,9.842,9.842,0,0,1,1.1,2.04" transform="translate(-1065.923 -583.929)"/></g><g transform="matrix(0.996, 0.087, -0.087, 0.996, 5.192, 0)"><path class="a" d="M28.472.04a7.834,7.834,0,0,0-2.479.141,4.619,4.619,0,0,0-1.9,1.259c-.024.025-.041.021-.038.089.031.527.031,1.12.1,1.634,0,.1.007.115-.111.177a1.633,1.633,0,0,0-.865,1c-.256.835-.575,1.353-.1,2.32.132.266.214.141.313.034.511-.547,1.132-1.1,1.458-1.405a7.728,7.728,0,0,1,.113,1.36c0,.128.088.107.176.1s.2,0,.294,0l.164.5a1.885,1.885,0,0,1,.316.081c-.626.937-1.161.836-.989,2.031s.187,1.267.3,1.825c.062.319-.155.492-.321.759-.069.112.029.144-.425.159a5.537,5.537,0,0,0-3.481,1.959c-.054.073-.094.111-.337-.113-.2-.183-.217.046-.474.09-.224.038-.082.2-1.105-.19-.268-.105-.226-.015-.287.111a7.343,7.343,0,0,0-.317.82c-.112.325-.613.764-.264,1.077a6.42,6.42,0,0,0,.319.7c.1.172-.137.259.261.353a8.97,8.97,0,0,1-3.819,3.629c-1.479.777-1.563,1.148-3.531,1.395a6.346,6.346,0,0,0-1.484.466c.046-.213.069-.41.116-.623.062-.11-.1-.347-.31-.047a6.116,6.116,0,0,1-1.291.766V21.9a3.527,3.527,0,0,1-.1-1.2c.1-.289-.071-.3-.2-.263a1.664,1.664,0,0,0-.983.692l-.03-.45s0-.5-.389-.015c-.434.545-.78-.071-1.68,2.28a5.243,5.243,0,0,1-1.377,2.635c-1.294,1.73-.873,1.642-1.087,2.156-.183.438-1.238,2.916-1.376,3.144a3.532,3.532,0,0,0-.568.975c-.22.853-.417,1.586-.606,2.546-.157.8-.048.77.345,1.175a6.8,6.8,0,0,0,.894.787c.326.264.264-.038.369-.179.33-.45.314-.027.5.146.115.106.265.773,1.036.552.744-.213,1.421-.374,1.476-.543a1.741,1.741,0,0,0-.022-.839c-.079-.391,0-.262.239-.46.3-.246,2.194-1.439,3.4-2.195,1.438-.9,1.662-.946,1.9-1.229.214-.254.347.012.483.122.684.557,1.366,1.271,2,1.867.129.122.218.212.228.7.029,1.336.332,3.916.8,4.544a10.067,10.067,0,0,0-.978,4.406,2.787,2.787,0,0,1-.082.749c-.926,2.57-1.563,4.443-1.753,5.02A8.625,8.625,0,0,1,9.03,52.461c-.455.435-.936,1.366-1.38,1.906-.175.211-.137.321-.482.308a1.971,1.971,0,0,0-.849.09c-.225.1-.281-.168-.441.1-.373.439-.807.924-1.123,1.318-.113.138-.265.071.073.223a7.4,7.4,0,0,0,2.87.757c.48.01.39-.093.541-.461.059-.12.374-.515.515-.723l.921-.152c.156-.023.148-.107.223-.273.521-1.15.862-1.9,1.4-3.057a5.948,5.948,0,0,1,1.017-1.229c.354-.153.462-.634.87-1.594a18.533,18.533,0,0,1,2.275-4.007,32.608,32.608,0,0,1-.945,4.621.319.319,0,0,0-.014.265c.08.455.076,1,.121,1.489a1.059,1.059,0,0,1-.144.547c-.439,1.176-1.412,3.114-1.726,3.738a7.9,7.9,0,0,1-1.893,1.319c-.493.23-.372.192-.424.458-.116.616-.183.615.029.714.272.127.306.353.688.463a2.721,2.721,0,0,0,1.6.242c.455-.112.623-.054.7-.391a7.3,7.3,0,0,0,.153-1.089c.023-.605,0-.468.325-.664s.523-.321.7-.412.172-.064.208-.23c.068-.336.739-3.94,1.511-5.05.176-.253.134-.056.325-1a27.573,27.573,0,0,1,4.468-8.621A20.243,20.243,0,0,0,27,40.948l.522.516c1.46-.722,2.788-1.067,3.622-1.887l-.215-.5c2.24-.874,7.021-5.534,8.288-7.017l.289.278,1.525-1.751-.283-.413.62-.826c1.679,2.145,3.364,3.738,7.178,3,.1.406-1.08,2.613-1.058,2.881a15.113,15.113,0,0,1,1.333,2.414c.562.318,1.081.539,1.685.954.12.082.4.323.371-.1a23.555,23.555,0,0,1,.213-2.759c-.018-.17.019-.226-.345-.377-.4-.164-.44-.583-.307-1.257a8.886,8.886,0,0,1,.857-2.567,10.109,10.109,0,0,1,2.882-2.125c.751-.309.821.285.851.88.09,1.733.377,3.572.472,4.23A1.966,1.966,0,0,0,56.615,36.2,13.428,13.428,0,0,0,59.5,38.08c.175.06.385.355.364-.034a7.116,7.116,0,0,1,.082-1.719c.078-.578.217-.447-.209-.565-.718-.2-.7-.2-1.211-.331l.142-.9c.141-.182-.116-.246-.392-.35-.378-.143-.958-.13-1.042-1.094-.171-1.936-.324-6.013-.327-6.659-.006-1.45-.266-1.279-2.445-.913a7.382,7.382,0,0,1-3.527-.027,8.7,8.7,0,0,0-.525-7.052c1.333-.179,2.125.836,2.3,2.048.022.145.254.07.217-.053a7.57,7.57,0,0,1-.176-2.347,1.829,1.829,0,0,0-.852-1.937,2.234,2.234,0,0,1,.659-.216,1.707,1.707,0,0,1,1.345.822h.169a4.6,4.6,0,0,0-.356-1.317c-.115-.236.117-.148.242-.152a7.958,7.958,0,0,1,3.1.839A2.037,2.037,0,0,0,59.275,16c1.257-.912,1.448-1.118,1.667-1.269.089-.061.13-.284-.132-.222a5.283,5.283,0,0,1-1.867-.026c1.647-.925,1.6-4.195,3.522-4.735.141-.039.158-.2-.051-.23-.9-.143-2.841,1.7-4.147,2.019a5.2,5.2,0,0,1,.1-.8c.038-.2-.038-.286-.182-.206a3.493,3.493,0,0,1-2.334.4c-.833-.05-.949-.476-2.464-.6-.819-.068-1.172-.107-1.361-.129a2.6,2.6,0,0,1,1-.657,1.308,1.308,0,0,1,.537.028c.044.018.2-.245-.048-.343-1.32-.512-3.606.756-4.244,1.547a1.127,1.127,0,0,1,.111-.944c.171-.167.393-.536-.224-.336-.442.142-.827.955-1.047,1.352-1.511.834-1.464,2.05-.864,3.3l-.2,1.18c-5.088-1.964-10.687.557-14.349,4.246a.454.454,0,0,1-.486.182l-.654-.061.245-1.413-.111-.157c.057-.727-.245-.914.183-1.236.485-.361.584-.341.673-.72.509-2.161.475-3.093.986-3.935.339-.564.065-.736.639-1.375.115-.128.087-.2.287-.21,1.508-.151,2.574-.218,3.084-.208a5.172,5.172,0,0,0,2.539-.717c.392-.116.356-.055.625-.287a3.34,3.34,0,0,1,1.663-.888c.232-.038.327.012.281-.3-.041-.173.055-.2.114-.228.371-.182.319-.476.337-.736-.029-.229.171-.208.269-.239.942-.294,1.054-.659,1.436-1.542.186-.427.059-.272-.2-.589a3,3,0,0,0-1.027-.842c-.288-.14-.417-.1-.79.027-.2-.217-.191-.208-.278-.3s-.863-.4-.642.146c.172.418-.394.809-.415.875a1.88,1.88,0,0,0-.539,1.232c.011.307-.112.032-.294.154a3.109,3.109,0,0,1-.69.351c-.451.149-.118.169-.746-.081a3.073,3.073,0,0,0-3.279.154c-.474.256-.47.1-.8-.177a.654.654,0,0,0-.85-.042c-.167.083-.129.045-.365-.034-.581-.229-1.042-.48-1.565-.721a1.434,1.434,0,0,0-1.393-.06c-.088.047-.181.168-.175-.007a6.241,6.241,0,0,1,.091-.823c.074-.454.019-.347-.034-.532s-.2-.093-.245-.041c-.239.285-.172.146-.307-.451a7.777,7.777,0,0,0,2.252-1.31c.184-.077.04-.19-.06-.225-.644-.239-1.954.129-2.594.052-.548-.07-.52-.028-.6-.285-.226-.772-.43-1.2-.593-1.722-.044-.139.008-.186-.212-.214m-4.1,13.325L23,13.357c-.121.18-.087.166-.129.5l-.75.18-.4.052A3.943,3.943,0,0,1,24,12.721l.555,0Zm-2.63,3.163c.128-.143.253-.1.392-.11.573-.016,1.594.079,2.389.119.156.017.214.112.133.191a8.837,8.837,0,0,1-1.334,1.259,11.8,11.8,0,0,0-3.162,3.476c-.315.716-.545,1.466-.818,2.2l-1.911-.141c.069-.189.181-.417.052-.468a.852.852,0,0,0-.347-.015c-.177.205-.917.28-.975.3-.656.187-.967-.164-1.614.271-.04.027-.184.115-.139.05a3.587,3.587,0,0,1,.515-.7c.079-.063.007-.218-.148-.191a3.109,3.109,0,0,1-1.127.149,3.939,3.939,0,0,1-1.209-.442,15.413,15.413,0,0,0,4.556-2.532,12.558,12.558,0,0,0,2.536-2.874A.159.159,0,0,1,19.7,17c.259.055.727.038,1.418.075a5.6,5.6,0,0,0,.616-.547" transform="translate(0 0)"/></g></svg>