<svg xmlns="http://www.w3.org/2000/svg" width="300.459" height="349.7" viewBox="0 0 300.459 349.7"><defs><style>.a{fill:#fff;stroke:rgba(0,0,0,0);stroke-miterlimit:10;}</style></defs><path class="a" d="M-9833.916,566.812a27.93,27.93,0,0,0-15.666-4.2,19.62,19.62,0,0,1-2.829.775l-20.659-7.211c.178-.308.342-.607.57-.955l-1-4.8,45.113,15.751a22.9,22.9,0,0,1-4.96.653C-9833.54,566.824-9833.729,566.82-9833.916,566.812Zm-91.185-5.928s-29.89-6.385-48.38-17.523c0,0-4.53,2.923-8.7-5.2a9.961,9.961,0,0,0-.345-.955l79.193,27.642c-.14.4-.7.942-2.669.942C-9908.744,565.791-9914.218,564.754-9925.1,560.884Zm-91.6-63.12v-5.6l194.4,67.853c-.809.931-1.061,2.226.82,3.947,0,0-1.072.458-2.684,1.011Zm147.068,63.231a10.7,10.7,0,0,1-2.918.275,2.037,2.037,0,0,1-1.523-2.768l13.575,4.74a12.1,12.1,0,0,1-1.425.082A14.269,14.269,0,0,1-9869.637,560.995Zm-127.709-31.637v0l-19.359-6.758V517l121.808,42.515c-.77.4-1.6.865-2.474,1.424,0,0,.514,1.044-2.67,2.382Zm-.7-2.493a5.47,5.47,0,0,1,.7,2.45,5.429,5.429,0,0,0-.692-2.45,4.939,4.939,0,0,1-1.4-2.636A4.943,4.943,0,0,0-9998.047,526.866Zm-18.658-37.384v-5.6l201.289,70.259a8.12,8.12,0,0,1-1.043.386s-4.043.727-3.035,3.773l-.021.009Zm0,24.84v-5.6l135.852,47.418c-.861.946-2.521,1.721-5.73,1.442a9.35,9.35,0,0,0-4.773.494Zm0-8.278v-5.607l140.065,48.888a6.35,6.35,0,0,0-3.295,4.216s0,.093,0,.242Zm0-24.843v-5.6l203.349,70.98c-1.507.934-2.984,1.589-.891,3.932a2.767,2.767,0,0,1,.666,1.586Zm0-8.277v-5.6l209.476,73.117c-.421.972-1.578,2-4.154,2.92a2.763,2.763,0,0,1-.088,1.2Zm3.07,67.3a11.52,11.52,0,0,1-1.239-3.046,2.942,2.942,0,0,0-1.648,2.035l-.183-.063v-5.6l11.9,4.154a21.157,21.157,0,0,0-2.982,3,5.182,5.182,0,0,1-.5,1.379Zm-3.07-75.583v-5.6l207.191,72.324c-1.359,1.358-1.9,3.588.976,5.422a5.108,5.108,0,0,1,.745.775Zm0,66.232v-5.6l19.014,6.638,1.731.6a25.453,25.453,0,0,0-2.444,1.08,32.92,32.92,0,0,0-3.968,2.28Zm24.15,2.831,2.885,1.008a3.379,3.379,0,0,1-.444.03A3.5,3.5,0,0,1-9992.555,533.709Zm-24.15-77.342v-5.6l208.823,72.885c1.816,3.606,5.967,1.658,7.537,4.479,0,0-.445,1.367-4.405,2.214Zm0-8.278v-5.6l202.668,70.739a11.041,11.041,0,0,1-.99,1.421,7.11,7.11,0,0,0-1.055,3.471Zm0-8.277v-5.6l202.882,70.814a6.04,6.04,0,0,1,.339.539,6.9,6.9,0,0,1,.548,5.371Zm0-8.282v-5.6l200.136,69.857a2.637,2.637,0,0,0,.467.919,12.406,12.406,0,0,0-.061,4.823Zm0-8.279v-5.6l199.755,69.721c.042.069.081.138.12.2,1.072,1.936.62,3.839.3,5.545Zm0-8.278v-5.6l197.613,68.979c.446,2.145.225,4.123.464,5.763Zm0-8.278v-5.6l190.447,66.477a27.727,27.727,0,0,0,4.267,5.607,10.81,10.81,0,0,1,1.66,2.059Zm0-8.281v-5.6l190.667,66.551a5.575,5.575,0,0,0-1.588,3.677l.132.23a6.074,6.074,0,0,0,.1,1.221Zm0-8.28v-5.6l194.679,67.951a4.294,4.294,0,0,0,.146,4.291,10.614,10.614,0,0,0-1.759.748Zm0-8.277v-5.6l199.6,69.674.022,0,.106.042a25.657,25.657,0,0,0-3.8,4.273Zm189.7,65.248c1.378-.949,4.153-1.968,9.384-1.25a24.252,24.252,0,0,0-3.3-.243A10.538,10.538,0,0,0-9827.01,447.1Zm-189.7-73.521v-5.606l176.046,61.446c1.055,2.947,4.11,8.417,12.332,8.351,0,0,4.106.171,8.4,4.491Zm0-8.284v-5.6l169.83,59.277,4.823,7.289Zm0-8.282v-5.6l142.763,49.832c.416.356.829.712,1.285,1.062,0,0,.442-.093,1.223-.189l17.492,6.107c.573.952,1.265,2.068,2.2,3.4l2.554,3.854Zm153.392,45.264c4.025.589,5.737,1.176,6.979,2.436Zm-153.392-53.543v-5.6l121.847,42.529c.046,1.643.6,4.432,4.061,3.076,0,0,4.181-.488,3.693,1.718,0,0-3.95,2.119,5.2,1.978,0,0-1.532.317,2.023,1.789a26.281,26.281,0,0,0,2.087,3Zm0-8.973V218.124h190.416a3.053,3.053,0,0,0,.159,3.259c-2.555,1.58-1.033,6.792-3.541,6.619,0,0-1.311-2.974-7.283.524,0,0-6.167.664-7.35,2.876,0,0-7,.993-4.086,10.6-2.773,4.291.118,5.775-2.742,8.058l-7.751,2.157s1.62,6.637-1.254,4.563c-.658-1.535-2.7-.7-4.779.126-1.632.652-3.289,1.308-4.314.817,0,0-9.246.712-4.631,5.3,2.7-1.344,8.581,2.451,2.223,5.236,0,0-6.415,3.953-2.661,9.455,0,0-1.062,3.037-7.808,4.512a7.966,7.966,0,0,0-7.982.509s-3.127,1.8-4.9.464c0,0-2.875-2.065-4.253,2.253a1.6,1.6,0,0,1-2.07.224c-1.072-.458-2.333-.916-5.441,3.585,0,0-5.547,3.04-.467,5.993,0,0,6.9-2.121,1.349,6.278.048.042.1.069.146.108.588,3.549-9.518,5.18-6.045,10.8,0,0,.207,7.184,6.052,7.8,0,0,3.709-2.618,2.184,1.463,0,0-3.194-.194-3.515,1.092,0,0,.213,2.2,3.03,3.683a7.374,7.374,0,0,0-4.8-.67s-5.051.817-1.905,3.363c0,0,.463,2.72,2.414,3.118,0,0-3.027,3.217,1.515,5.221,0,0-6.037,1.5-3.751,4.375,2.782,5.006-3.584,7.792-2.675,10.051,0,0-3.292,2.747,1.752,6.87-.745,1.738.187,1.4,1.667,2.065,1.208.539,2.782,1.741,4.121,5.26a16.476,16.476,0,0,0-3.9-.557,16.5,16.5,0,0,1,3.9.56s-3.714,2.612,2.206,5.814c0,0,6.144-.081,4.595,5.177-1.083,2.884,2.118,4.324,3.939,5.524Zm112.681-13.29c.05.027.074.042.074.042C-9903.975,326.5-9904,326.491-9904.024,326.476Zm173.453-63.163a5.77,5.77,0,0,1-2.387-4.291s-.556-4.725-9.653.58c0,0,1.383,4.973-8.1-.32,0,0-3.4-3.031-6.64-2.05,0,0-1.14-3.914-6.682-.88,0,0-3.474,4.273-8.016-2.672,0,0-2.539-3.947-6.094-1.679,0,0-1.913,3.366-6.2,1.254,0,0-5.485-3.076-5.919,2.316,0,0,.765,2.032-2.9,3.468,0,0-3.023-1.723-6.22,2.433,0,0-3.295,2.747-8.926-.577a8.291,8.291,0,0,0-5.193-3.779s-5.376-2.253,4.367-5.772c6.992-.416,1.944-4.542-.328-3.064,0,0-5.08,1.4-2.9-1.487,0,0,1.714-1.254-2.563-2.768-3.054-.581-1.675-1.487-.592-2.92a2.922,2.922,0,0,0,.5-3.441c4.523-1.771,2.27-5.826-1.692-4.276,0,0-7.509-1.131-1.2-6.5,0,0,5.945-2.325-1.439-3.217a32.745,32.745,0,0,0-2.755-5.545h47.324l-.839.64c2.171,1.35,5.088.2,6.687-.64h21.556c.036.1.076.194.115.293,0,0,2.661,9.126,10.023,10.607a13.086,13.086,0,0,0,11.143,5.8l-1.415,4.91s3.143,2.552,4.87.706c0,0,5.082-1.99,5.093,7.307-2.247,5.233,2.148,7.588-.456,10.934,0,0,.16,4-6.058,6.436a1.881,1.881,0,0,1-.785,2.923S-9731.54,267.762-9730.571,263.313Z" transform="translate(10017.205 -217.624)"/></svg>