<svg xmlns="http://www.w3.org/2000/svg" width="60.991" height="79.069" viewBox="0 0 60.991 79.069"><defs><style>.a{fill:#d08c00;}</style></defs><g transform="translate(-58.228)"><path class="a" d="M119.106,41.563V22.287h-4.657V39.272c-7.416-.061-15.661,1.753-20.978,7.069a19.766,19.766,0,0,0-2.414,2.941v-5.7c2.723-2.469,10.874-10.705,10.874-20.82C101.932,10.878,90.678,1.585,90.2,1.2L88.729,0l-1.47,1.2c-.479.39-11.733,9.683-11.733,21.567,0,10.115,8.151,18.352,10.874,20.82V49.3a19.785,19.785,0,0,0-2.425-2.958C78.662,41.028,70.419,39.21,63,39.272V22.287H58.341V41.564c-.131,1.42-1.177,15.308,6.963,23.449,5.3,5.3,13.563,7.153,21.1,7.068v6.989h4.657V72.081c7.5.079,15.759-1.743,21.085-7.068,8.142-8.142,7.094-22.034,6.963-23.45Z"/></g></svg>