<svg xmlns="http://www.w3.org/2000/svg" width="54.816" height="54.778" viewBox="0 0 54.816 54.778"><defs><style>.a{fill:#d08c00;}</style></defs><g transform="translate(-31.547 -31.755)"><path class="a" d="M107.911,383.11v6.868H104V381.9a5.412,5.412,0,0,0,3.422,1.234C107.593,383.134,107.752,383.122,107.911,383.11Z" transform="translate(-63.599 -307.355)"/><path class="a" d="M397.351,116.15a4.885,4.885,0,0,1-3.666-1.65,3.923,3.923,0,0,1-3.08.574,12.409,12.409,0,0,1-.306,1.491,3.911,3.911,0,0,1,2.175,3.507,4.866,4.866,0,0,1,4.277,2.53c1.075.55,3.2,1.564,4.021,1.075.44-.269.5-1.137.5-1.638a9.111,9.111,0,0,0-2.505-6.074A6.176,6.176,0,0,1,397.351,116.15Zm-1.955,2.933a.978.978,0,1,1,.978-.978A.981.981,0,0,1,395.4,119.083Z" transform="translate(-314.911 -72.633)"/><path class="a" d="M333.837,103.874a9.129,9.129,0,0,0,1.039-4.974l-5.976,6.648C330.684,105.536,332.957,105.218,333.837,103.874Z" transform="translate(-261.015 -58.939)"/><path class="a" d="M80.142,55.249a.977.977,0,0,1-.159-1.283,2.948,2.948,0,0,0-2.432-4.595,6.362,6.362,0,0,0-.965.159.979.979,0,0,1-1.21-.684.917.917,0,0,1,.024-.6,4.8,4.8,0,0,0,.183-.831,1.94,1.94,0,0,0-.965-1.686,2.01,2.01,0,0,1-.171.269c-1.405,2.126-4.436,2.542-6.538,2.542a15.339,15.339,0,0,1-2.249-.159.986.986,0,0,1-.819-1.112.884.884,0,0,1,.244-.5l8.8-9.776a.983.983,0,0,1,1.381-.073.953.953,0,0,1,.306.55,17.146,17.146,0,0,1,.244,2.957,1.964,1.964,0,0,0,2.334-.648.976.976,0,0,1,1.369-.208,1.038,1.038,0,0,1,.293.354,2.935,2.935,0,1,0,1.894-4.155.984.984,0,0,1-1.2-.7,1.042,1.042,0,0,1-.037-.281v-.1a1.961,1.961,0,0,0-1.955-1.955,1.991,1.991,0,0,0-1.5.7.984.984,0,0,1-1.381.122,1.091,1.091,0,0,1-.269-.354,2.44,2.44,0,0,0-3.226-1.234,2.486,2.486,0,0,0-1.369,1.6.978.978,0,0,1-1.2.7.764.764,0,0,1-.269-.122,2.936,2.936,0,0,0-3.483,4.7.984.984,0,0,1,.1,1.381,1.007,1.007,0,0,1-.831.33,2.163,2.163,0,0,0-.281-.012,2.942,2.942,0,0,0-2.933,2.933,2.554,2.554,0,0,0,.012.306.977.977,0,0,1-.855,1.088,1.053,1.053,0,0,1-.513-.073,3.922,3.922,0,0,0-1.576-.33,3.86,3.86,0,0,0-2.493.9.975.975,0,0,1-1.308-.061,2.936,2.936,0,0,0-4.155.037,2.98,2.98,0,0,0-.733,1.259.972.972,0,0,1-1.21.672,1.072,1.072,0,0,1-.44-.257,1.951,1.951,0,0,0-2.762-.037,1.762,1.762,0,0,0-.269.33.982.982,0,0,1-1.356.281,1.026,1.026,0,0,1-.281-.281,1.953,1.953,0,0,0-2.713-.55,1.893,1.893,0,0,0-.794,1.075.987.987,0,0,1-1.21.672,2.933,2.933,0,0,0-3.642,2,2.873,2.873,0,0,0,0,1.638.98.98,0,0,1-.66,1.21,1.961,1.961,0,0,0-1.405,1.87,1.9,1.9,0,0,0,.33,1.088.971.971,0,0,1-.269,1.356c-.024.012-.037.024-.061.037a3.9,3.9,0,0,0,.587,7.051.978.978,0,0,1,.391,1.564,3.984,3.984,0,0,0,.391,5.536,3.915,3.915,0,0,0,4.8.293.989.989,0,0,1,1.356.232,3.412,3.412,0,0,0,4.766.794,3.26,3.26,0,0,0,.574-.513.983.983,0,0,1,1.381-.086,1.153,1.153,0,0,1,.122.122,2.947,2.947,0,0,0,4.131.477,3.018,3.018,0,0,0,.88-1.149.974.974,0,0,1,1.283-.513,1.04,1.04,0,0,1,.4.318A2.455,2.455,0,0,0,58,72.37a2.687,2.687,0,0,0,.281-.244.981.981,0,0,1,1.381,0c.037.037.061.073.1.11a3.908,3.908,0,0,0,6.66-.611.977.977,0,0,1,1.308-.452,1.012,1.012,0,0,1,.452.452,3.91,3.91,0,0,0,7.43-1.7,4.139,4.139,0,0,0-.073-.782.973.973,0,0,1,.77-1.149,1.354,1.354,0,0,1,.232-.024H76.6a2.931,2.931,0,0,0,2.3-4.754.972.972,0,0,1,.159-1.369,1.592,1.592,0,0,1,.183-.122A3.9,3.9,0,0,0,81.1,56.519a4.088,4.088,0,0,0-.953-1.271Z" transform="translate(0 0)"/><path class="a" d="M104,464l.978,1.955h3.911L107.911,464Z" transform="translate(-63.599 -379.422)"/><path class="a" d="M339.911,386.3v6.929H336V385.6a5.888,5.888,0,0,0,2.933.782A5.2,5.2,0,0,0,339.911,386.3Z" transform="translate(-267.247 -310.603)"/><path class="a" d="M336,464l.978,1.955h3.911L339.911,464Z" transform="translate(-267.247 -379.422)"/></g></svg>