<svg xmlns="http://www.w3.org/2000/svg" width="59.429" height="52.457" viewBox="0 0 59.429 52.457"><defs><style>.a{fill:#d08c00;}</style></defs><path class="a" d="M2148.955,499.294c0-1.647,0-2.821,0-4a32.682,32.682,0,0,0-.04-3.975,6.368,6.368,0,0,1,2.634-6.422,1.742,1.742,0,0,0,.348-2.768c-.737-.762-1.742-.644-2.761.356-.624.612-1.212,1.26-1.943,2.023-.818-.863-1.494-1.612-2.211-2.32a1.582,1.582,0,0,0-2.368-.119,1.676,1.676,0,0,0-.117,2.488,2.181,2.181,0,0,0,.462.473c2.145,1.473,2.775,3.482,2.551,6.044-.221,2.54-.048,5.113-.048,8.122a21.664,21.664,0,0,1-2.987-2.016c-3.457-3.344-5.041-7.575-5.649-12.263a4.191,4.191,0,0,0-.891-2.07c-3.759-4.431-3.485-13.083.6-17a4.741,4.741,0,0,1,6.586-.56,7.068,7.068,0,0,0,8.308-.085,4.658,4.658,0,0,1,6.181.39,10.055,10.055,0,0,1,3.2,5.955c.755,4.311.289,8.359-2.79,11.8a2.75,2.75,0,0,0-.437,1.455,19.76,19.76,0,0,1-5.463,12.208A25.806,25.806,0,0,1,2148.955,499.294Zm-7-26.353a1.681,1.681,0,0,0-1.745-1.725,1.7,1.7,0,0,0-.054,3.39A1.678,1.678,0,0,0,2141.954,472.941Zm13.946-.046a1.72,1.72,0,1,0-1.631,1.711A1.695,1.695,0,0,0,2155.9,472.9Z" transform="translate(-2117.484 -446.837)"/><path class="a" d="M2113.948,405.892c1.905-3.439,3.891-4.313,7.487-3.263a7.07,7.07,0,0,1,12.645-.062c4.008-.806,5.649-.09,7.241,2.8a23.187,23.187,0,0,1,4.768,1.119,4.829,4.829,0,0,1,2.412,5.628,5.291,5.291,0,0,1-4.9,3.949,3.789,3.789,0,0,1-3.06-1.083c-3.238-2.959-6.884-3.154-10.526-.758a3.73,3.73,0,0,1-4.456.009c-3.6-2.376-7.272-2.239-10.42.661a4.161,4.161,0,0,1-3.693,1.122,4.961,4.961,0,0,1-3.534-2.111,4.748,4.748,0,0,1-.3-5.585,5.209,5.209,0,0,1,5.376-2.629C2113.289,405.726,2113.585,405.815,2113.948,405.892Z" transform="translate(-2098.055 -398.692)"/><path class="a" d="M2087.2,477.436c-.369,1.782-.794,3.476-1.047,5.2a10.714,10.714,0,0,0,0,3.154c.161,1.046-.208,1.515-1.156,1.62-1.483.163-2.969.322-4.458.393-1.408.067-2.822.035-4.233.019-2.2-.026-2.9-.927-2.448-3.123a8.579,8.579,0,0,1,7.851-7.227A54.211,54.211,0,0,1,2087.2,477.436Z" transform="translate(-2073.72 -456.504)"/><path class="a" d="M2246.549,477.74a54.91,54.91,0,0,1,6.369.044,8.611,8.611,0,0,1,7.209,7.867c.085,1.489-.484,2.328-1.851,2.341-2.775.027-5.56.03-8.326-.165-2.236-.157-2.109-.368-2.157-2.571a48.131,48.131,0,0,0-.814-6.117A9.881,9.881,0,0,0,2246.549,477.74Z" transform="translate(-2200.706 -456.715)"/></svg>