<svg xmlns="http://www.w3.org/2000/svg" width="53.368" height="87.069" viewBox="0 0 53.368 87.069"><defs><style>.a{fill:#d08c00;}</style></defs><g transform="translate(-98.739 0)"><path class="a" d="M125.426,250.567c-7.293-22.239-25.1-28.079-26.687-29.14l.671,20.632c.014,38.563,51.936,37.833,52.025,0l.671-20.631C150.3,222.639,132.677,228.405,125.426,250.567Z" transform="translate(0 -183.639)"/><path class="a" d="M222.8,116.978a52.515,52.515,0,0,1,5.119,7.251,49.443,49.443,0,0,1,21.741-20.018c-.78-5.23-1.83-12.143-3.1-20.211C244.462,85.966,229.193,94.577,222.8,116.978Z" transform="translate(-102.888 -69.665)"/><path class="a" d="M148.354,98.747C141.837,89.5,134.889,85.586,133.24,84c-1.41,8.977-2.48,15.7-3.239,20.6a49.718,49.718,0,0,1,11.793,8.125,64.852,64.852,0,0,1,6.559-13.979Z" transform="translate(-25.927 -69.666)"/><path class="a" d="M187.705,24.607a63.535,63.535,0,0,1,13.934-13.435c-7.605-14.941-20.124-14.9-27.7.149A61.928,61.928,0,0,1,187.705,24.607Z" transform="translate(-62.366 0)"/></g></svg>